<?xml version="1.0" encoding="UTF-8"?>
<svg id="Layer_2" data-name="Layer 2" xmlns="http://www.w3.org/2000/svg" viewBox="0 0 1060.1 660.6">
  <defs>
    <style>
      .cls-1 {
        fill: #256063;
      }

      .cls-1, .cls-2, .cls-3, .cls-4, .cls-5, .cls-6, .cls-7, .cls-8, .cls-9, .cls-10, .cls-11 {
        stroke-width: 0px;
      }

      .cls-2 {
        fill: #a54325;
      }

      .cls-3 {
        fill: #4aa5af;
      }

      .cls-4 {
        fill: #dd6333;
      }

      .cls-5 {
        fill: #346d26;
      }

      .cls-6 {
        fill: #422a1f;
      }

      .cls-7 {
        fill: #d1a834;
      }

      .cls-8 {
        fill: #76487a;
      }

      .cls-9 {
        fill: #fff;
      }

      .cls-10 {
        fill: #c76ecc;
      }

      .cls-11 {
        fill: #f7f7f7;
      }
    </style>
  </defs>
  <g id="Layer_2-2" data-name="Layer 2">
    <rect class="cls-6" x="0" y="0" width="1060.1" height="660.6" rx="330.3" ry="330.3"/>
    <path class="cls-5" d="M330.3,623.2c-78.2,0-151.8-30.5-207.1-85.8-55.3-55.3-85.8-128.9-85.8-207.1s30.5-151.8,85.8-207.1c55.3-55.3,128.9-85.8,207.1-85.8h399.5c78.2,0,151.8,30.5,207.1,85.8,55.3,55.3,85.8,128.9,85.8,207.1s-30.5,151.8-85.8,207.1c-55.3,55.3-128.9,85.8-207.1,85.8h-399.5Z"/>
    <path class="cls-7" d="M729.8,591.8h-399.5c-69.9,0-135.5-27.2-184.9-76.6-49.4-49.4-76.6-115.1-76.6-184.9s27.2-135.5,76.6-184.9c49.4-49.4,115.1-76.6,184.9-76.6h399.5c69.9,0,135.5,27.2,184.9,76.6,49.4,49.4,76.6,115.1,76.6,184.9s-27.2,135.5-76.6,184.9c-49.4,49.4-115.1,76.6-184.9,76.6ZM330.3,77c-67.6,0-131.2,26.3-179.1,74.2s-74.2,111.4-74.2,179.1,26.3,131.2,74.2,179.1c47.8,47.8,111.4,74.2,179.1,74.2h399.5c67.6,0,131.2-26.3,179.1-74.2,47.8-47.8,74.2-111.4,74.2-179.1s-26.3-131.2-74.2-179.1c-47.8-47.8-111.4-74.2-179.1-74.2h-399.5Z"/>
    <g>
      <g>
        <circle class="cls-2" cx="187" cy="212" r="39.1"/>
        <g>
          <path class="cls-4" d="M152.3,198.3c-1.7,4.3-2.7,9-2.7,13.9s1,9.7,2.7,14l24.1-13.9-24.2-13.9Z"/>
          <path class="cls-4" d="M157.9,235.6c5.9,7.3,14.5,12.4,24.3,13.7v-27.7l-24.3,14Z"/>
          <path class="cls-4" d="M182.2,175.1c-9.8,1.3-18.4,6.4-24.3,13.8l24.3,14.1v-27.8Z"/>
          <path class="cls-4" d="M216.6,189.1c-5.7-7.2-14-12.3-23.5-13.9v27.4l23.5-13.5Z"/>
          <path class="cls-4" d="M193.1,249.2c9.5-1.5,17.7-6.6,23.4-13.8l-23.4-13.5v27.3Z"/>
          <path class="cls-4" d="M222,225.9c1.7-4.2,2.6-8.9,2.6-13.7s-.9-9.4-2.6-13.6l-23.6,13.6,23.6,13.6Z"/>
          <path class="cls-9" d="M198.4,212.3l23.6-13.6c-1.3-3.4-3.2-6.6-5.4-9.5l-23.5,13.5v-27.4c-2-.3-4-.5-6-.5s-3.3.1-4.9.3v27.8l-24.3-14.1c-2.3,2.8-4.1,6-5.5,9.5l24.2,13.9-24.1,13.9c1.4,3.4,3.3,6.6,5.5,9.5l24.3-14v27.7c1.6.2,3.3.3,4.9.3s4.1-.2,6-.5v-27.3l23.4,13.5c2.3-2.9,4.1-6.1,5.5-9.5l-23.6-13.6Z"/>
        </g>
        <circle class="cls-9" cx="187" cy="212.7" r="29.1"/>
        <path class="cls-4" d="M187,238.9c-14.4,0-26.2-11.7-26.2-26.2s11.7-26.2,26.2-26.2,26.2,11.7,26.2,26.2-11.7,26.2-26.2,26.2Z"/>
      </g>
      <g>
        <circle class="cls-1" cx="139.6" cy="191.7" r="39.1"/>
        <g>
          <path class="cls-3" d="M104.9,178c-1.7,4.3-2.7,9-2.7,13.9s1,9.7,2.7,14l24.1-13.9-24.2-13.9Z"/>
          <path class="cls-3" d="M110.5,215.3c5.9,7.3,14.5,12.4,24.3,13.7v-27.7l-24.3,14Z"/>
          <path class="cls-3" d="M134.8,154.8c-9.8,1.3-18.4,6.4-24.3,13.8l24.3,14.1v-27.8Z"/>
          <path class="cls-3" d="M169.2,168.8c-5.7-7.2-14-12.3-23.5-13.9v27.4l23.5-13.5Z"/>
          <path class="cls-3" d="M145.7,228.9c9.5-1.5,17.7-6.6,23.4-13.8l-23.4-13.5v27.3Z"/>
          <path class="cls-3" d="M174.6,205.6c1.7-4.2,2.6-8.9,2.6-13.7s-.9-9.4-2.6-13.6l-23.6,13.6,23.6,13.6Z"/>
          <path class="cls-11" d="M151,192l23.6-13.6c-1.3-3.4-3.2-6.6-5.4-9.5l-23.5,13.5v-27.4c-2-.3-4-.5-6-.5s-3.3.1-4.9.3v27.8l-24.3-14.1c-2.3,2.8-4.1,6-5.5,9.5l24.2,13.9-24.1,13.9c1.4,3.4,3.3,6.6,5.5,9.5l24.3-14v27.7c1.6.2,3.3.3,4.9.3s4.1-.2,6-.5v-27.3l23.4,13.5c2.3-2.9,4.1-6.1,5.5-9.5l-23.6-13.6Z"/>
        </g>
        <circle class="cls-11" cx="139.5" cy="192.4" r="29.1"/>
        <path class="cls-3" d="M139.5,218.6c-14.4,0-26.2-11.7-26.2-26.2s11.7-26.2,26.2-26.2,26.2,11.7,26.2,26.2-11.7,26.2-26.2,26.2Z"/>
      </g>
      <g>
        <circle class="cls-8" cx="182.3" cy="157.4" r="39.1"/>
        <g>
          <path class="cls-10" d="M147.5,143.7c-1.7,4.3-2.7,9-2.7,13.9s1,9.7,2.7,14l24.1-13.9-24.2-13.9Z"/>
          <path class="cls-10" d="M153.1,181c5.9,7.3,14.5,12.4,24.3,13.7v-27.7l-24.3,14Z"/>
          <path class="cls-10" d="M177.4,120.5c-9.8,1.3-18.4,6.4-24.3,13.8l24.3,14.1v-27.8Z"/>
          <path class="cls-10" d="M211.8,134.5c-5.7-7.2-14-12.3-23.5-13.9v27.4l23.5-13.5Z"/>
          <path class="cls-10" d="M188.4,194.6c9.5-1.5,17.7-6.6,23.4-13.8l-23.4-13.5v27.3Z"/>
          <path class="cls-10" d="M217.2,171.3c1.7-4.2,2.6-8.9,2.6-13.7s-.9-9.4-2.6-13.6l-23.6,13.6,23.6,13.6Z"/>
          <path class="cls-9" d="M193.6,157.6l23.6-13.6c-1.3-3.4-3.2-6.6-5.4-9.5l-23.5,13.5v-27.4c-2-.3-4-.5-6-.5s-3.3.1-4.9.3v27.8l-24.3-14.1c-2.3,2.8-4.1,6-5.5,9.5l24.2,13.9-24.1,13.9c1.4,3.4,3.3,6.6,5.5,9.5l24.3-14v27.7c1.6.2,3.3.3,4.9.3s4.1-.2,6-.5v-27.3l23.4,13.5c2.3-2.9,4.1-6.1,5.5-9.5l-23.6-13.6Z"/>
        </g>
        <circle class="cls-9" cx="182.2" cy="158.1" r="29.1"/>
        <path class="cls-10" d="M182.2,184.3c-14.4,0-26.2-11.7-26.2-26.2s11.7-26.2,26.2-26.2,26.2,11.7,26.2,26.2-11.7,26.2-26.2,26.2Z"/>
      </g>
      <g>
        <circle class="cls-2" cx="214.3" cy="523.3" r="39.1"/>
        <g>
          <path class="cls-4" d="M179.5,509.7c-1.7,4.3-2.7,9-2.7,13.9s1,9.7,2.7,14l24.1-13.9-24.2-13.9Z"/>
          <path class="cls-4" d="M185.1,547c5.9,7.3,14.5,12.4,24.3,13.7v-27.7l-24.3,14Z"/>
          <path class="cls-4" d="M209.4,486.4c-9.8,1.3-18.4,6.4-24.3,13.8l24.3,14.1v-27.8Z"/>
          <path class="cls-4" d="M243.8,500.4c-5.7-7.2-14-12.3-23.5-13.9v27.4l23.5-13.5Z"/>
          <path class="cls-4" d="M220.3,560.5c9.5-1.5,17.7-6.6,23.4-13.8l-23.4-13.5v27.3Z"/>
          <path class="cls-4" d="M249.2,537.2c1.7-4.2,2.6-8.9,2.6-13.7s-.9-9.4-2.6-13.6l-23.6,13.6,23.6,13.6Z"/>
          <path class="cls-9" d="M225.6,523.6l23.6-13.6c-1.3-3.4-3.2-6.6-5.4-9.5l-23.5,13.5v-27.4c-2-.3-4-.5-6-.5s-3.3.1-4.9.3v27.8l-24.3-14.1c-2.3,2.8-4.1,6-5.5,9.5l24.2,13.9-24.1,13.9c1.4,3.4,3.3,6.6,5.5,9.5l24.3-14v27.7c1.6.2,3.3.3,4.9.3s4.1-.2,6-.5v-27.3l23.4,13.5c2.3-2.9,4.1-6.1,5.5-9.5l-23.6-13.6Z"/>
        </g>
        <circle class="cls-9" cx="214.2" cy="524.1" r="29.1"/>
        <path class="cls-4" d="M214.2,550.2c-14.4,0-26.2-11.7-26.2-26.2s11.7-26.2,26.2-26.2,26.2,11.7,26.2,26.2-11.7,26.2-26.2,26.2Z"/>
      </g>
      <g>
        <circle class="cls-1" cx="166.9" cy="503" r="39.1"/>
        <g>
          <path class="cls-3" d="M132.1,489.3c-1.7,4.3-2.7,9-2.7,13.9s1,9.7,2.7,14l24.1-13.9-24.2-13.9Z"/>
          <path class="cls-3" d="M137.7,526.7c5.9,7.3,14.5,12.4,24.3,13.7v-27.7l-24.3,14Z"/>
          <path class="cls-3" d="M162,466.1c-9.8,1.3-18.4,6.4-24.3,13.8l24.3,14.1v-27.8Z"/>
          <path class="cls-3" d="M196.4,480.1c-5.7-7.2-14-12.3-23.5-13.9v27.4l23.5-13.5Z"/>
          <path class="cls-3" d="M172.9,540.2c9.5-1.5,17.7-6.6,23.4-13.8l-23.4-13.5v27.3Z"/>
          <path class="cls-3" d="M201.8,516.9c1.7-4.2,2.6-8.9,2.6-13.7s-.9-9.4-2.6-13.6l-23.6,13.6,23.6,13.6Z"/>
          <path class="cls-11" d="M178.2,503.3l23.6-13.6c-1.3-3.4-3.2-6.6-5.4-9.5l-23.5,13.5v-27.4c-2-.3-4-.5-6-.5s-3.3.1-4.9.3v27.8l-24.3-14.1c-2.3,2.8-4.1,6-5.5,9.5l24.2,13.9-24.1,13.9c1.4,3.4,3.3,6.6,5.5,9.5l24.3-14v27.7c1.6.2,3.3.3,4.9.3s4.1-.2,6-.5v-27.3l23.4,13.5c2.3-2.9,4.1-6.1,5.5-9.5l-23.6-13.6Z"/>
        </g>
        <circle class="cls-11" cx="166.8" cy="503.7" r="29.1"/>
        <path class="cls-3" d="M166.8,529.9c-14.4,0-26.2-11.7-26.2-26.2s11.7-26.2,26.2-26.2,26.2,11.7,26.2,26.2-11.7,26.2-26.2,26.2Z"/>
      </g>
      <g>
        <circle class="cls-8" cx="209.5" cy="468.7" r="39.1"/>
        <g>
          <path class="cls-10" d="M174.8,455c-1.7,4.3-2.7,9-2.7,13.9s1,9.7,2.7,14l24.1-13.9-24.2-13.9Z"/>
          <path class="cls-10" d="M180.3,492.4c5.9,7.3,14.5,12.4,24.3,13.7v-27.7l-24.3,14Z"/>
          <path class="cls-10" d="M204.6,431.8c-9.8,1.3-18.4,6.4-24.3,13.8l24.3,14.1v-27.8Z"/>
          <path class="cls-10" d="M239,445.8c-5.7-7.2-14-12.3-23.5-13.9v27.4l23.5-13.5Z"/>
          <path class="cls-10" d="M215.6,505.9c9.5-1.5,17.7-6.6,23.4-13.8l-23.4-13.5v27.3Z"/>
          <path class="cls-10" d="M244.4,482.6c1.7-4.2,2.6-8.9,2.6-13.7s-.9-9.4-2.6-13.6l-23.6,13.6,23.6,13.6Z"/>
          <path class="cls-9" d="M220.8,469l23.6-13.6c-1.3-3.4-3.2-6.6-5.4-9.5l-23.5,13.5v-27.4c-2-.3-4-.5-6-.5s-3.3.1-4.9.3v27.8l-24.3-14.1c-2.3,2.8-4.1,6-5.5,9.5l24.2,13.9-24.1,13.9c1.4,3.4,3.3,6.6,5.5,9.5l24.3-14v27.7c1.6.2,3.3.3,4.9.3s4.1-.2,6-.5v-27.3l23.4,13.5c2.3-2.9,4.1-6.1,5.5-9.5l-23.6-13.6Z"/>
        </g>
        <circle class="cls-9" cx="209.4" cy="469.4" r="29.1"/>
        <path class="cls-10" d="M209.4,495.6c-14.4,0-26.2-11.7-26.2-26.2s11.7-26.2,26.2-26.2,26.2,11.7,26.2,26.2-11.7,26.2-26.2,26.2Z"/>
      </g>
      <g>
        <circle class="cls-2" cx="953" cy="421.4" r="39.1"/>
        <g>
          <path class="cls-4" d="M939.3,456.1c4.3,1.7,9,2.7,13.9,2.7s9.7-1,14-2.7l-13.9-24.1-13.9,24.2Z"/>
          <path class="cls-4" d="M976.6,450.6c7.3-5.9,12.4-14.5,13.7-24.3h-27.7l14,24.3Z"/>
          <path class="cls-4" d="M916.1,426.3c1.3,9.8,6.4,18.4,13.8,24.3l14.1-24.3h-27.8Z"/>
          <path class="cls-4" d="M930.1,391.9c-7.2,5.7-12.3,14-13.9,23.5h27.4l-13.5-23.5Z"/>
          <path class="cls-4" d="M990.2,415.3c-1.5-9.5-6.6-17.7-13.8-23.4l-13.5,23.4h27.3Z"/>
          <path class="cls-4" d="M966.9,386.5c-4.2-1.7-8.9-2.6-13.7-2.6s-9.4.9-13.6,2.6l13.6,23.6,13.6-23.6Z"/>
          <path class="cls-9" d="M953.3,410.1l-13.6-23.6c-3.4,1.3-6.6,3.2-9.5,5.4l13.5,23.5h-27.4c-.3,2-.5,4-.5,6s.1,3.3.3,4.9h27.8l-14.1,24.3c2.8,2.3,6,4.1,9.5,5.5l13.9-24.2,13.9,24.1c3.4-1.4,6.6-3.3,9.5-5.5l-14-24.3h27.7c.2-1.6.3-3.3.3-4.9s-.2-4.1-.5-6h-27.3l13.5-23.4c-2.9-2.3-6.1-4.1-9.5-5.5l-13.6,23.6Z"/>
        </g>
        <circle class="cls-9" cx="953.7" cy="421.5" r="29.1"/>
        <path class="cls-4" d="M979.9,421.5c0,14.4-11.7,26.2-26.2,26.2s-26.2-11.7-26.2-26.2,11.7-26.2,26.2-26.2,26.2,11.7,26.2,26.2Z"/>
      </g>
      <g>
        <circle class="cls-1" cx="932.7" cy="468.8" r="39.1"/>
        <g>
          <path class="cls-3" d="M919,503.6c4.3,1.7,9,2.7,13.9,2.7s9.7-1,14-2.7l-13.9-24.1-13.9,24.2Z"/>
          <path class="cls-3" d="M956.3,498c7.3-5.9,12.4-14.5,13.7-24.3h-27.7l14,24.3Z"/>
          <path class="cls-3" d="M895.8,473.7c1.3,9.8,6.4,18.4,13.8,24.3l14.1-24.3h-27.8Z"/>
          <path class="cls-3" d="M909.8,439.3c-7.2,5.7-12.3,14-13.9,23.5h27.4l-13.5-23.5Z"/>
          <path class="cls-3" d="M969.9,462.7c-1.5-9.5-6.6-17.7-13.8-23.4l-13.5,23.4h27.3Z"/>
          <path class="cls-3" d="M946.6,433.9c-4.2-1.7-8.9-2.6-13.7-2.6s-9.4.9-13.6,2.6l13.6,23.6,13.6-23.6Z"/>
          <path class="cls-11" d="M932.9,457.5l-13.6-23.6c-3.4,1.3-6.6,3.2-9.5,5.4l13.5,23.5h-27.4c-.3,2-.5,4-.5,6s.1,3.3.3,4.9h27.8l-14.1,24.3c2.8,2.3,6,4.1,9.5,5.5l13.9-24.2,13.9,24.1c3.4-1.4,6.6-3.3,9.5-5.5l-14-24.3h27.7c.2-1.6.3-3.3.3-4.9s-.2-4.1-.5-6h-27.3l13.5-23.4c-2.9-2.3-6.1-4.1-9.5-5.5l-13.6,23.6Z"/>
        </g>
        <circle class="cls-11" cx="933.4" cy="468.9" r="29.1"/>
        <path class="cls-3" d="M959.5,468.9c0,14.4-11.7,26.2-26.2,26.2s-26.2-11.7-26.2-26.2,11.7-26.2,26.2-26.2,26.2,11.7,26.2,26.2Z"/>
      </g>
      <g>
        <circle class="cls-8" cx="898.4" cy="426.2" r="39.1"/>
        <g>
          <path class="cls-10" d="M884.7,460.9c4.3,1.7,9,2.7,13.9,2.7s9.7-1,14-2.7l-13.9-24.1-13.9,24.2Z"/>
          <path class="cls-10" d="M922,455.3c7.3-5.9,12.4-14.5,13.7-24.3h-27.7l14,24.3Z"/>
          <path class="cls-10" d="M861.5,431.1c1.3,9.8,6.4,18.4,13.8,24.3l14.1-24.3h-27.8Z"/>
          <path class="cls-10" d="M875.5,396.6c-7.2,5.7-12.3,14-13.9,23.5h27.4l-13.5-23.5Z"/>
          <path class="cls-10" d="M935.6,420.1c-1.5-9.5-6.6-17.7-13.8-23.4l-13.5,23.4h27.3Z"/>
          <path class="cls-10" d="M912.3,391.2c-4.2-1.7-8.9-2.6-13.7-2.6s-9.4.9-13.6,2.6l13.6,23.6,13.6-23.6Z"/>
          <path class="cls-9" d="M898.6,414.8l-13.6-23.6c-3.4,1.3-6.6,3.2-9.5,5.4l13.5,23.5h-27.4c-.3,2-.5,4-.5,6s.1,3.3.3,4.9h27.8l-14.1,24.3c2.8,2.3,6,4.1,9.5,5.5l13.9-24.2,13.9,24.1c3.4-1.4,6.6-3.3,9.5-5.5l-14-24.3h27.7c.2-1.6.3-3.3.3-4.9s-.2-4.1-.5-6h-27.3l13.5-23.4c-2.9-2.3-6.1-4.1-9.5-5.5l-13.6,23.6Z"/>
        </g>
        <circle class="cls-9" cx="899.1" cy="426.3" r="29.1"/>
        <path class="cls-10" d="M925.2,426.3c0,14.4-11.7,26.2-26.2,26.2s-26.2-11.7-26.2-26.2,11.7-26.2,26.2-26.2,26.2,11.7,26.2,26.2Z"/>
      </g>
      <g>
        <circle class="cls-2" cx="906.1" cy="170.1" r="39.1"/>
        <g>
          <path class="cls-4" d="M921,204.4c4.3-1.8,8.2-4.5,11.7-7.9s6.1-7.5,8-11.8l-26.9-7.2,7.2,26.9Z"/>
          <path class="cls-4" d="M943.4,174c1-9.4-1.5-19-7.5-26.9l-19.6,19.6,27.1,7.3Z"/>
          <path class="cls-4" d="M883.4,199.7c7.9,6,17.6,8.5,26.9,7.5l-7.3-27.1-19.7,19.7Z"/>
          <path class="cls-4" d="M869,165.4c-1.1,9.1,1.2,18.6,6.8,26.4l19.4-19.4-26.2-7Z"/>
          <path class="cls-4" d="M928.1,139.5c-7.8-5.6-17.2-7.9-26.3-6.8l7,26.1,19.3-19.3Z"/>
          <path class="cls-4" d="M891.2,135.6c-4.2,1.8-8.1,4.4-11.5,7.8-3.4,3.4-6,7.3-7.8,11.4l26.4,7.1-7.1-26.3Z"/>
          <path class="cls-9" d="M898.3,161.9l-26.4-7.1c-1.5,3.4-2.4,7-2.9,10.6l26.2,7-19.4,19.4c1.2,1.6,2.5,3.1,3.9,4.6s2.4,2.3,3.7,3.3l19.7-19.7,7.3,27.1c3.6-.4,7.2-1.3,10.6-2.8l-7.2-26.9,26.9,7.2c1.4-3.4,2.4-7,2.8-10.6l-27.1-7.3,19.6-19.6c-1-1.3-2.1-2.5-3.3-3.7s-3-2.7-4.6-3.9l-19.3,19.3-7-26.1c-3.6.4-7.2,1.4-10.6,2.9l7.1,26.3Z"/>
        </g>
        <circle class="cls-9" cx="906.7" cy="169.7" r="29.1"/>
        <path class="cls-4" d="M925.2,151.2c10.2,10.2,10.2,26.8,0,37s-26.8,10.2-37,0-10.2-26.8,0-37,26.8-10.2,37,0Z"/>
      </g>
      <g>
        <circle class="cls-1" cx="925.3" cy="218" r="39.1"/>
        <g>
          <path class="cls-3" d="M940.1,252.2c4.3-1.8,8.2-4.5,11.7-7.9s6.1-7.5,8-11.8l-26.9-7.2,7.2,26.9Z"/>
          <path class="cls-3" d="M962.6,221.9c1-9.4-1.5-19-7.5-26.9l-19.6,19.6,27.1,7.3Z"/>
          <path class="cls-3" d="M902.6,247.6c7.9,6,17.6,8.5,26.9,7.5l-7.3-27.1-19.7,19.7Z"/>
          <path class="cls-3" d="M888.2,213.3c-1.1,9.1,1.2,18.6,6.8,26.4l19.4-19.4-26.2-7Z"/>
          <path class="cls-3" d="M947.3,187.4c-7.8-5.6-17.2-7.9-26.3-6.8l7,26.1,19.3-19.3Z"/>
          <path class="cls-3" d="M910.4,183.5c-4.2,1.8-8.1,4.4-11.5,7.8s-6,7.3-7.8,11.4l26.4,7.1-7.1-26.3Z"/>
          <path class="cls-11" d="M917.4,209.8l-26.4-7.1c-1.5,3.4-2.4,7-2.9,10.6l26.2,7-19.4,19.4c1.2,1.6,2.5,3.1,3.9,4.6s2.4,2.3,3.7,3.3l19.7-19.7,7.3,27.1c3.6-.4,7.2-1.3,10.6-2.8l-7.2-26.9,26.9,7.2c1.4-3.4,2.4-7,2.8-10.6l-27.1-7.3,19.6-19.6c-1-1.3-2.1-2.5-3.3-3.7s-3-2.7-4.6-3.9l-19.3,19.3-7-26.1c-3.6.4-7.2,1.4-10.6,2.9l7.1,26.3Z"/>
        </g>
        <circle class="cls-11" cx="925.8" cy="217.6" r="29.1"/>
        <path class="cls-3" d="M944.3,199.1c10.2,10.2,10.2,26.8,0,37s-26.8,10.2-37,0-10.2-26.8,0-37c10.2-10.2,26.8-10.2,37,0Z"/>
      </g>
      <g>
        <circle class="cls-8" cx="870.8" cy="212.1" r="39.1"/>
        <g>
          <path class="cls-10" d="M885.7,246.3c4.3-1.8,8.2-4.5,11.7-7.9s6.1-7.5,8-11.8l-26.9-7.2,7.2,26.9Z"/>
          <path class="cls-10" d="M908.2,216c1-9.4-1.5-19-7.5-26.9l-19.6,19.6,27.1,7.3Z"/>
          <path class="cls-10" d="M848.2,241.7c7.9,6,17.6,8.5,26.9,7.5l-7.3-27.1-19.7,19.7Z"/>
          <path class="cls-10" d="M833.8,207.4c-1.1,9.1,1.2,18.6,6.8,26.4l19.4-19.4-26.2-7Z"/>
          <path class="cls-10" d="M892.8,181.5c-7.8-5.6-17.2-7.9-26.3-6.8l7,26.1,19.3-19.3Z"/>
          <path class="cls-10" d="M856,177.6c-4.2,1.8-8.1,4.4-11.5,7.8s-6,7.3-7.8,11.4l26.4,7.1-7.1-26.3Z"/>
          <path class="cls-9" d="M863,203.9l-26.4-7.1c-1.5,3.4-2.4,7-2.9,10.6l26.2,7-19.4,19.4c1.2,1.6,2.5,3.1,3.9,4.6s2.4,2.3,3.7,3.3l19.7-19.7,7.3,27.1c3.6-.4,7.2-1.3,10.6-2.8l-7.2-26.9,26.9,7.2c1.4-3.4,2.4-7,2.8-10.6l-27.1-7.3,19.6-19.6c-1-1.3-2.1-2.5-3.3-3.7s-3-2.7-4.6-3.9l-19.3,19.3-7-26.1c-3.6.4-7.2,1.4-10.6,2.9l7.1,26.3Z"/>
        </g>
        <circle class="cls-9" cx="871.4" cy="211.7" r="29.1"/>
        <path class="cls-10" d="M889.9,193.2c10.2,10.2,10.2,26.8,0,37s-26.8,10.2-37,0c-10.2-10.2-10.2-26.8,0-37s26.8-10.2,37,0Z"/>
      </g>
    </g>
  </g>
</svg>