<?xml version="1.0" encoding="UTF-8"?>
<svg id="Layer_2" data-name="Layer 2" xmlns="http://www.w3.org/2000/svg" viewBox="0 0 207.6 184.4">
  <defs>
    <style>
      .cls-1, .cls-2, .cls-3 {
        fill: #efaaaf;
      }

      .cls-1, .cls-4, .cls-5, .cls-6, .cls-3, .cls-7, .cls-8, .cls-9, .cls-10 {
        stroke-miterlimit: 10;
      }

      .cls-1, .cls-8 {
        stroke: #052435;
      }

      .cls-2, .cls-11, .cls-12, .cls-13, .cls-14, .cls-15, .cls-16 {
        stroke-width: 0px;
      }

      .cls-11 {
        fill: #000;
      }

      .cls-4 {
        fill: #c76e00;
      }

      .cls-4, .cls-5, .cls-6, .cls-3, .cls-7, .cls-9, .cls-10 {
        stroke: #000;
      }

      .cls-4, .cls-6, .cls-7 {
        stroke-width: 1.4px;
      }

      .cls-12 {
        fill: #fdda67;
      }

      .cls-5, .cls-3, .cls-9 {
        stroke-width: 2px;
      }

      .cls-5, .cls-14 {
        fill: #2b0a0d;
      }

      .cls-13 {
        fill: #010000;
      }

      .cls-6 {
        fill: #3297b3;
      }

      .cls-7 {
        fill: #160204;
      }

      .cls-15 {
        fill: #f8ba00;
      }

      .cls-8 {
        fill: none;
      }

      .cls-16, .cls-10 {
        fill: #fff;
      }

      .cls-9 {
        fill: #9d84dc;
      }

      .cls-10 {
        stroke-width: 5px;
      }
    </style>
  </defs>
  <g id="happyKing">
    <g>
      <path class="cls-16" d="M54.8,98.6s33.2,2,45.1,1.3,47.5-6.4,47.5-6.4l4.7,26.4s-35.1,19-48.6,17.4-48.6-10-48.6-10v-28.7Z"/>
      <line class="cls-8" x1="76.6" y1="102" x2="75" y2="137.4"/>
      <line class="cls-8" x1="97.2" y1="102" x2="97.5" y2="141.6"/>
      <line class="cls-8" x1="114.9" y1="100.3" x2="119.1" y2="134.8"/>
      <line class="cls-8" x1="132" y1="98.7" x2="137.5" y2="127.1"/>
      <polygon class="cls-3" points="58.5 91.8 82.5 41.5 117 38.5 150.1 92.6 101.3 99.8 58.5 91.8"/>
      <path class="cls-5" d="M54,130.6l4.5-11.3s24.8,11.9,46.4,11.3,40.9-15.1,40.9-15.1l3.9,8.4-14.2,59.6h-57l-24.5-52.8Z"/>
      <path class="cls-7" d="M50.5,139l3.5-8.4s39.7,17.4,49.4,17.4,46.3-24.2,46.3-24.2l5.2,15.1-14.8,44.5h-68.3l-21.3-44.5Z"/>
      <path class="cls-4" d="M44.1,156l6.4-17.1s22.2,27.4,54.5,26.7c27.4-.6,49.9-26.7,49.9-26.7l5.2,17.1-9,27.4H58.5l-14.5-27.4Z"/>
      <path class="cls-15" d="M89,183.4l-4.5-20.1s11.6,3.1,19.6,3.1,20.6-4.5,20.6-4.5l-7.8,21.5h-28Z"/>
      <path class="cls-6" d="M34.4,183.4h136.9l-11.3-27.4s-41.7,20.3-56.6,20.3-59.4-20.3-59.4-20.3l-9.7,27.4Z"/>
      <path class="cls-11" d="M50.5,102.6s15.6,4.8,52.9,1.9,51.5-7.1,51.5-7.1l-4.7-4.8-96.2,5.7-3.4,4.2Z"/>
      <path class="cls-14" d="M62.6,83.1s7.8,5,7.2,9.5c0,0,57.7-5.8,63.5-4.7,0,0,3.9-9.9,8.1-9.9l8.8,14.5s-24.7,4.6-45.6,6.3-50.6-.5-50.6-.5l8.7-15.2Z"/>
      <g>
        <path class="cls-10" d="M54.5,138.7l-8.8-38.5s-33.2-5.1-38,2.9-7.7,20-1.9,27.4,28.2,15,48.7,8.1"/>
        <path class="cls-9" d="M47.9,107.1s-26.2-14.3-30.9,4.7,8.7,27.2,13.8,27.2,19.7,4.2,19.7-8.1"/>
        <g>
          <path class="cls-2" d="M45.6,142.6c-3.8,0-7.3-1.6-10.2-4.5-4.3-4.4-6.7-11.5-6.5-19.4.3-12.4,4.2-16.1,10.1-16.9.2-4.4,0-12.6-1.8-15.9-1.5-2.7-1.3-6.2.4-9.2,1.8-3.1,4.8-4.9,8-4.9s2.8.3,4.2,1c4.9,2.4,12,9.5,5.9,29.2,6.8,1.6,16.7,6.7,16.5,17.7-.4,15.5-17.2,22.6-26.1,22.9-.2,0-.3,0-.5,0Z"/>
          <path class="cls-11" d="M45.6,73.7c1,0,2.2.3,3.3.8,7.1,3.5,9.7,12.9,4.2,29,0,0,17.4,2.3,17.1,16.1s-15.5,20.6-24.2,20.9c-.1,0-.3,0-.4,0-8.5,0-15-9.2-14.7-21.9.3-12.9,4.5-14.8,10-15.1,0,0,1-13.5-1.9-18.7-2.4-4.3,1.3-11.1,6.7-11.1M45.6,69.7h0c-3.9,0-7.6,2.2-9.7,5.9-2.1,3.6-2.3,7.9-.5,11.2,1.3,2.3,1.7,8.3,1.6,13.3-6.8,1.7-9.9,7.5-10.1,18.5-.2,8.5,2.4,16.1,7,20.9,3.3,3.4,7.3,5.1,11.7,5.1s.4,0,.6,0c11.5-.4,27.7-9.3,28-24.8.3-11.2-8.7-16.9-16-19.2,5.4-19.7-2.2-27-7.5-29.6-1.7-.8-3.4-1.2-5.1-1.2h0Z"/>
        </g>
      </g>
      <g>
        <path class="cls-10" d="M153.2,131.4l8.8-38.5s33.2-5.1,38,2.9,7.7,20,1.9,27.4-28.2,15-48.7,8.1"/>
        <path class="cls-9" d="M159.7,99.8s26.2-14.3,30.9,4.7-8.7,27.2-13.8,27.2-19.7,4.2-19.7-8.1"/>
        <g>
          <path class="cls-2" d="M162.1,135.3c-.2,0-.3,0-.5,0-8.9-.3-25.7-7.4-26.1-22.9-.3-11,9.6-16.1,16.5-17.7-6.1-19.8,1-26.8,5.9-29.2,1.4-.7,2.8-1,4.2-1,3.2,0,6.2,1.8,8,4.9,1.8,3,1.9,6.6.4,9.2-1.9,3.3-1.9,11.5-1.8,15.9,5.9.9,9.8,4.5,10.1,16.9.2,7.9-2.2,15-6.5,19.4-2.9,3-6.4,4.5-10.2,4.5h0Z"/>
          <path class="cls-11" d="M162,66.4c5.4,0,9.1,6.8,6.7,11.1-2.9,5.2-1.9,18.7-1.9,18.7,5.5.3,9.7,2.3,10,15.1.3,12.7-6.2,21.9-14.7,21.9s-.3,0-.4,0c-8.7-.3-23.8-7.1-24.2-20.9-.3-13.9,17.1-16.1,17.1-16.1-5.5-16.1-2.9-25.4,4.2-29,1.1-.6,2.3-.8,3.3-.8M162,62.4c-1.7,0-3.4.4-5.1,1.2-5.3,2.6-12.9,10-7.5,29.6-7.3,2.2-16.2,7.9-16,19.2.4,15.5,16.5,24.4,28,24.8.2,0,.4,0,.6,0,4.4,0,8.4-1.8,11.7-5.1,4.7-4.8,7.3-12.4,7-20.9-.3-11-3.4-16.8-10.1-18.5,0-4.9.3-11,1.6-13.3,1.8-3.3,1.7-7.6-.5-11.2-2.2-3.7-5.8-5.9-9.7-5.9h0Z"/>
        </g>
      </g>
      <path class="cls-1" d="M107,61l3.2,22.6s11.6-3.5,12.6,2.9-18.4,8.2-18.4,8.2c0,0-20.3,2.7-21.8-3.3s10.9-7.8,10.9-7.8l-1.3-20.3"/>
      <path class="cls-13" d="M85.9,58.7s8-11.6-3.4-7.7l-11.4,3.9s2.3-6.1-1-6.1-8.7,2.9-7.1,10,0,8.4,8.7,6.1,14.2-6.1,14.2-6.1Z"/>
      <path class="cls-13" d="M111,55s-8-11.6,3.4-7.7l11.4,3.9s-2.3-6.1,1-6.1,8.7,2.9,7.1,10,0,8.4-8.7,6.1-14.2-6.1-14.2-6.1Z"/>
      <path class="cls-13" d="M69.8,78.3s3.2-9.7,7.4-9.1,8.8,7.1,8.7,11.9c0,0-8.7-6.8-10.5-6s-5.6,3.1-5.6,3.1Z"/>
      <path class="cls-13" d="M130.9,75s-3.2-9.7-7.4-9.1-8.8,7.1-8.7,11.9c0,0,8.7-6.8,10.5-6s5.6,3.1,5.6,3.1Z"/>
      <g>
        <g>
          <path class="cls-15" d="M67.8,16.3l13.6-11,3.5,14.2c1.9-.3,3.7-.9,4.1-1.3.4-1.3.2-8.3-.2-14l-.2-2.1h19.6v14.1c.5.4,1.3,1.1,2.4,1.4l4-13.3,16,6.3-10.9,32.7-1.9-.5c0,0-8.7-2.5-18.7-2.6h-.1c-9.3,0-17.9,4.3-18,4.3l-2,1-11.3-29.2Z"/>
          <path class="cls-11" d="M106.2,4v12.9s2.3,2.9,5.8,2.9l3.9-12.9,12.2,4.8-9.7,29.1s-8.8-2.6-19.3-2.7c0,0,0,0-.1,0-9.9,0-18.9,4.5-18.9,4.5l-10-25.8,10-8.1,3.2,12.9s6.4-.6,7.4-2.6c1-1.9,0-15.1,0-15.1h15.5M110.2,0h-23.8l.3,4.3c.3,4.6.5,10.2.4,12.6-.2,0-.5.2-.8.2l-2.3-9.3-1.5-6.1-4.9,3.9-10,8.1-2.3,1.8,1.1,2.7,10,25.8,1.6,4.1,3.9-2c0,0,8.3-4.1,17.1-4.1h.1c9.8,0,18.1,2.5,18.2,2.5l3.7,1.1,1.2-3.7,9.7-29.1,1.2-3.6-3.5-1.4-12.2-4.8-4-1.6-1.3,4.2-1.8,6.1V0h0Z"/>
        </g>
        <path class="cls-12" d="M87.3,21s4.3,1,3.9-8l-.4-9h6.8v33.8s-8.1,1.6-8.1,1.6l-2.2-18.4Z"/>
      </g>
    </g>
  </g>
</svg>