<?xml version="1.0" encoding="UTF-8"?>
<svg id="Layer_2" data-name="Layer 2" xmlns="http://www.w3.org/2000/svg" viewBox="0 0 152 204.6">
  <defs>
    <style>
      .cls-1 {
        fill: #6c1c74;
      }

      .cls-1, .cls-2, .cls-3, .cls-4, .cls-5, .cls-6, .cls-7, .cls-8, .cls-9, .cls-10 {
        stroke-miterlimit: 10;
      }

      .cls-1, .cls-2, .cls-3, .cls-5, .cls-7, .cls-8, .cls-9, .cls-10 {
        stroke: #000;
      }

      .cls-1, .cls-2, .cls-4, .cls-5, .cls-6 {
        stroke-width: 1px;
      }

      .cls-2 {
        fill: #fff;
      }

      .cls-3 {
        fill: #3297b3;
      }

      .cls-3, .cls-7, .cls-10 {
        stroke-width: 1.4px;
      }

      .cls-4, .cls-6 {
        stroke: #052435;
      }

      .cls-4, .cls-8 {
        fill: #efaaaf;
      }

      .cls-11 {
        fill: #000;
      }

      .cls-11, .cls-12, .cls-13, .cls-14 {
        stroke-width: 0px;
      }

      .cls-5 {
        fill: #c725a5;
      }

      .cls-12 {
        fill: #fdda67;
      }

      .cls-6 {
        fill: none;
      }

      .cls-13 {
        fill: #010000;
      }

      .cls-7 {
        fill: #160204;
      }

      .cls-8, .cls-9 {
        stroke-width: 2px;
      }

      .cls-9 {
        fill: #2b0a0d;
      }

      .cls-14 {
        fill: #f8ba00;
      }

      .cls-10 {
        fill: #c76e00;
      }
    </style>
  </defs>
  <g id="Layer_7" data-name="Layer 7">
    <g>
      <path class="cls-10" d="M11.6,177l11.7-27.8s14.8,25.2,50,24.6c30-.5,52.6-30.9,52.6-30.9l12.6,34.2-9.9,27H27.5l-15.9-27Z"/>
      <path class="cls-14" d="M60.7,203.7l-9.2-32.1s13.3,3.3,21.2,3.3,23.1-5.5,23.1-5.5l-7.6,34.3h-27.6Z"/>
      <path class="cls-3" d="M1,203.9h149.8l-12.3-27s-45.6,20-62,20-65-20-65-20l-10.6,27Z"/>
      <polygon class="cls-8" points="32.5 91 55.7 42.8 92.3 35.8 118.9 95.7 32.5 91"/>
      <polygon class="cls-9" points="134.6 121.4 114.2 82.7 33.8 83 13.4 117.6 74.1 154.3 134.6 121.4"/>
      <path class="cls-7" d="M13.4,117.6l60.6,29.9,60.5-26.2s6.2,4.1,4.5,6.9-43.9,60.1-65.9,60.1S6.9,132.1,6.9,129.7s6.5-12,6.5-12Z"/>
      <path class="cls-7" d="M20.2,88.4s47.7-1.7,55-1.4c7.3.2,62.5-1.5,63.5,0s-7.9,6.6-23.1,6.4c-15.2-.2-34.4-1.4-40.5-1.4s-62.9,4.8-62.2,3.1,7.4-6.7,7.4-6.7Z"/>
      <path class="cls-9" d="M20.2,88.4s-8.7-3.3-7.4-5.2,16.1-1.1,16.1-1.1c0,0-4.9-5.5-2.9-7.8s8.6,7,8.6,7c0,0,36,2.5,42.3,2.3,6.3-.2,35.4-1.9,36.9-2.5s9-9.9,10.3-9.7-4.1,9.8-4.1,9.8c0,0,11.9-4,13.5-3.2s-1.9,6.2-9,8.2-104.3,2-104.3,2Z"/>
      <path class="cls-4" d="M80.3,59.2l3.2,22.2s11.4-3.5,12.4,2.9-18.1,8.1-18.1,8.1c0,0-20,2.7-21.5-3.3s10.7-7.7,10.7-7.7l-1.3-20"/>
      <path class="cls-13" d="M59.5,57s7.8-11.4-3.4-7.6l-11.2,3.8s2.2-6-.9-6-8.6,2.9-7,9.8,0,8.2,8.6,6,14-6,14-6Z"/>
      <path class="cls-13" d="M84.2,53.3s-7.8-11.4,3.4-7.6l11.2,3.8s-2.2-6,.9-6,8.6,2.9,7,9.8,0,8.2-8.6,6-14-6-14-6Z"/>
      <path class="cls-13" d="M43.6,76.3s3.2-9.6,7.3-9,8.7,7,8.6,11.7c0,0-8.6-6.7-10.3-5.9s-5.5,3.1-5.5,3.1Z"/>
      <path class="cls-13" d="M103.8,73s-3.2-9.6-7.3-9-8.7,7-8.6,11.7c0,0,8.6-6.7,10.3-5.9s5.5,3.1,5.5,3.1Z"/>
      <g>
        <g>
          <path class="cls-14" d="M42.2,16l13.3-10.8,3.5,14c1.9-.3,3.6-.9,4.1-1.3.4-1.3.2-8.2-.2-13.8l-.2-2.1h19.3v13.9c.5.4,1.3,1.1,2.3,1.4l3.9-13.1,15.8,6.2-10.7,32.2-1.8-.5c0,0-8.6-2.5-18.5-2.5h-.1c-9.2,0-17.6,4.2-17.7,4.2l-1.9,1-11.1-28.7Z"/>
          <path class="cls-11" d="M80.1,3.9v12.7s2.2,2.8,5.7,2.8l3.8-12.7,12.1,4.8-9.5,28.6s-8.7-2.6-19-2.6c0,0,0,0-.1,0-9.8,0-18.6,4.5-18.6,4.5l-9.8-25.4,9.8-7.9,3.2,12.7s6.3-.6,7.3-2.5,0-14.9,0-14.9h15.2M84,0h-23.4l.3,4.2c.3,4.5.5,10.1.4,12.4-.2,0-.5.2-.8.2l-2.3-9.1-1.5-6-4.8,3.9-9.8,7.9-2.2,1.8,1,2.7,9.8,25.4,1.6,4.1,3.9-2c0,0,8.1-4,16.8-4h.1c9.6,0,17.8,2.4,17.9,2.5l3.6,1.1,1.2-3.6,9.5-28.6,1.2-3.5-3.5-1.4-12.1-4.8-4-1.6-1.2,4.1-1.8,6V0h0Z"/>
        </g>
        <path class="cls-12" d="M61.4,20.7s4.2,1,3.8-7.9l-.4-8.9h6.7v33.3s-7.9,1.5-7.9,1.5l-2.1-18.1Z"/>
      </g>
      <g>
        <path class="cls-1" d="M26.1,94.3s-4,23.1,2.4,35.4,51.1,19.7,51.1,19.7c0,0,30-2.9,37.3-17.8,7.4-15,3.3-37.3,3.3-37.3H26.1Z"/>
        <path class="cls-2" d="M26.1,94.3h94.1s-9.9,23.1-47.5,21.4-46.6-21.4-46.6-21.4Z"/>
        <path class="cls-5" d="M51.5,142.9s-5.7-9-2.1-12.6,12.4-.7,16.2,1.4,5.4,3.3,7.1,3.1,5.3-5.5,14.3-6.2,11.7,3.6,11.2,7.1-5.2,9.3-5.2,9.3l-41.4-2.1Z"/>
        <path class="cls-2" d="M74.8,160.4s30.7,2.4,42.2-28.8c0,0-17,10.7-42.2,10-25.2-.7-36.6-5.2-46.3-11.9,0,0,7.3,29.7,46.3,30.7Z"/>
        <line class="cls-6" x1="45.4" y1="94.4" x2="44.9" y2="109.8"/>
        <line class="cls-6" x1="72.7" y1="94.3" x2="72.7" y2="115.7"/>
        <line class="cls-6" x1="49.1" y1="154.6" x2="48.5" y2="139.2"/>
        <line class="cls-6" x1="73" y1="162.5" x2="73" y2="141.1"/>
        <line class="cls-6" x1="100.8" y1="94.3" x2="100.8" y2="110.4"/>
        <line class="cls-6" x1="98.1" y1="138.8" x2="98.1" y2="154.9"/>
      </g>
    </g>
  </g>
</svg>