<?xml version="1.0" encoding="UTF-8"?>
<svg id="Layer_2" data-name="Layer 2" xmlns="http://www.w3.org/2000/svg" viewBox="0 0 154.4 193">
  <defs>
    <style>
      .cls-1, .cls-2, .cls-3, .cls-4, .cls-5, .cls-6, .cls-7, .cls-8, .cls-9, .cls-10 {
        stroke-miterlimit: 10;
      }

      .cls-1, .cls-2, .cls-4, .cls-5, .cls-6, .cls-7, .cls-8, .cls-10 {
        stroke: #000;
      }

      .cls-1, .cls-7 {
        fill: #fff;
      }

      .cls-11 {
        fill: #e96b00;
      }

      .cls-11, .cls-12, .cls-13, .cls-14, .cls-15 {
        stroke-width: 0px;
      }

      .cls-2, .cls-3, .cls-7, .cls-10 {
        stroke-linecap: round;
      }

      .cls-2, .cls-3, .cls-9 {
        fill: none;
      }

      .cls-2, .cls-5, .cls-10 {
        stroke-width: 2px;
      }

      .cls-3 {
        stroke-width: 3px;
      }

      .cls-3, .cls-9 {
        stroke: #052435;
      }

      .cls-12 {
        fill: #000;
      }

      .cls-4 {
        fill: #c76e00;
      }

      .cls-4, .cls-6, .cls-8 {
        stroke-width: 1.4px;
      }

      .cls-13 {
        fill: #fdda67;
      }

      .cls-5 {
        fill: #2b0a0d;
      }

      .cls-14, .cls-10 {
        fill: #cd2b6b;
      }

      .cls-6 {
        fill: #3297b3;
      }

      .cls-8 {
        fill: #160204;
      }

      .cls-15 {
        fill: #f8ba00;
      }
    </style>
  </defs>
  <g id="Layer_6" data-name="Layer 6">
    <g>
      <path class="cls-4" d="M11.8,164.9l4.2-10s27.7,20.4,63.5,19.7c30.4-.6,56.8-22.8,56.8-22.8l4.4,13.1-10,27.4H27.9l-16.1-27.4Z"/>
      <path class="cls-15" d="M61.7,192.1l-4.5-20.1s11.6,3.1,19.6,3.1,20.6-4.5,20.6-4.5l-7.8,21.5h-28Z"/>
      <path class="cls-6" d="M1.1,192.3h152.2l-12.5-27.4s-46.4,20.3-62.9,20.3-66-20.3-66-20.3l-10.7,27.4Z"/>
      <g>
        <path class="cls-15" d="M74.7,51.1c-10.5,0-20.3-6.5-20.7-6.8l-.5-.4-10.7-27.7,13.6-11,3.5,14.2c1.9-.3,3.7-.9,4.1-1.3.4-1.3.2-8.3-.2-14l-.2-2.1h19.6v14.1c.5.4,1.3,1.1,2.4,1.4l4-13.3,16,6.3-11.1,33.2-.4.4c-.3.3-8.2,6.9-19.3,6.9h-.1Z"/>
        <path class="cls-12" d="M81.2,4v12.9s2.3,2.9,5.8,2.9l3.9-12.9,12.2,4.8-10.3,30.9s-7.5,6.4-17.9,6.4,0,0-.1,0c-10,0-19.6-6.4-19.6-6.4l-10-25.8,10-8.1,3.2,12.9s6.4-.6,7.4-2.6c1-1.9,0-15.1,0-15.1h15.5M85.2,0h-23.8l.3,4.3c.3,4.6.5,10.2.4,12.6-.2,0-.5.2-.8.2l-2.3-9.3-1.5-6.1-4.9,3.9-10,8.1-2.3,1.8,1.1,2.7,10,25.8.5,1.2,1.1.7c.4.3,10.8,7.1,21.8,7.1h.1c11.8,0,20.2-7.1,20.6-7.4l.8-.7.4-1.1,10.3-30.9,1.2-3.6-3.5-1.4-12.2-4.8-4-1.6-1.3,4.2-1.8,6.1V0h0Z"/>
      </g>
      <path class="cls-13" d="M62.2,21s4.3,1,3.9-8l-.4-9h6.8l1.6,38.8-9,2.1-2.8-23.9Z"/>
      <path class="cls-11" d="M55.1,42.7s5.5,7.1,19.6,6.4,18-6.4,18-6.4c0,0-11.3-6.1-18.7-6.1s-19,6.1-19,6.1Z"/>
      <g>
        <polygon class="cls-14" points="31.8 111.7 56.6 60 95.7 52.5 124.2 116.8 31.8 111.7"/>
        <path class="cls-12" d="M94.8,54.2l27.1,60.9-87.8-4.8,23.5-49,37.2-7.1M96.6,50.8l-2.3.4-37.2,7.1-1.5.3-.7,1.4-23.5,49-1.9,4,4.5.2,87.8,4.8,4.9.3-2-4.5-27.1-60.9-1-2.2h0Z"/>
      </g>
      <polygon class="cls-5" points="137.7 141.2 117 101.9 35.4 102.1 14.7 137.3 76.3 174.6 137.7 141.2"/>
      <path class="cls-8" d="M14.7,137.3l61.6,30.4,61.5-26.6s6.3,4.2,4.5,7-32,26.5-66,26.4c-34-.1-68.2-22.5-68.2-25s6.6-12.2,6.6-12.2Z"/>
      <path class="cls-1" d="M36.3,106.8h80.2s11.6,22,11.6,33.6-.5,15.5-6.3,15.5-33.8-18.8-42-18.6-38.2,19.2-46.9,18.6-15.9-8.8,3.4-49.1Z"/>
      <line class="cls-9" x1="45.1" y1="106.8" x2="33" y2="156"/>
      <line class="cls-9" x1="59.5" y1="105.9" x2="55.1" y2="147.7"/>
      <line class="cls-9" x1="71.6" y1="105.9" x2="71.4" y2="139.9"/>
      <line class="cls-9" x1="85.6" y1="106.8" x2="89.7" y2="140.5"/>
      <line class="cls-9" x1="98.2" y1="105.9" x2="109.5" y2="150.7"/>
      <line class="cls-9" x1="112.7" y1="106.8" x2="121.9" y2="156"/>
      <path class="cls-8" d="M20.4,105.4s48.5-1.7,55.9-1.4,63.5-1.5,64.5,0-8,6.7-23.5,6.5-35-1.4-41.2-1.4-63.9,4.8-63.2,3.1,7.5-6.8,7.5-6.8Z"/>
      <path class="cls-5" d="M20.4,105.4s-8.9-3.3-7.5-5.2,16.4-1.1,16.4-1.1c0,0-5-5.6-2.9-7.9s8.7,7.1,8.7,7.1c0,0,36.6,2.5,43,2.4s35.9-1.9,37.5-2.6,9.2-10,10.5-9.9-4.2,10-4.2,10c0,0,12.1-4,13.7-3.2s-1.9,6.3-9.2,8.3-106,2.1-106,2.1Z"/>
      <path class="cls-7" d="M47.4,83.6s-2.7,11.3,6,10.6,17.7-5.8,18.8-8.5-24.8-2.1-24.8-2.1Z"/>
      <path class="cls-7" d="M83.7,84.9s4.5,9.9,12.9,8.1,9.4-9.4,9.3-11.6-22.2,3.5-22.2,3.5Z"/>
      <path class="cls-10" d="M89.1,95.4s10.6.6,11,5-18.4,4.8-21.7,5-23.8-1.6-24-5.3,7.8-4.7,7.8-4.7h6v-15.8h16.7l.8,14.5,3.5,1.2Z"/>
      <path class="cls-12" d="M56.1,101.9s-5.4,3.4-9.3,2.4-3.7-7.1-3.7-7.1c0,0,2.6,3.6,3.7,3.6s8.3,0,8.3,0l1,1Z"/>
      <path class="cls-12" d="M100,101.9s5.4,3.4,9.3,2.4,3.7-7.1,3.7-7.1c0,0-2.6,3.6-3.7,3.6s-8.3,0-8.3,0l-1,1Z"/>
      <path class="cls-2" d="M57.6,96.6s-7.4,1.6-8.7,0-2.9-5.3-2.9-5.3"/>
      <path class="cls-2" d="M95.7,96.7s7.8-1.3,8.6-2.4,3.4-4.1,2.9-6.3"/>
      <path class="cls-12" d="M37.3,77.1s1.3-8.7,6.9-8.7,5.4,7.9,5.4,7.9c0,0,19.6,2.4,27.6,2.3s27.5-3.1,27.5-3.1c0,0-2.3-7.6,1.3-8.4s7.7,0,8.7,3.2,2.3,12.3-2.7,13.2-35.5,1.8-35.5,1.8c0,0-31.7,1.8-34.9,0s-4.2-8.2-4.2-8.2Z"/>
      <path class="cls-3" d="M44,49.4l-16.7-16.3s-3.6-18.1-7.2-18.1,0,13,0,13c0,0-8-10.9-13.8-2.9s5.1,14.5,10.9,14.5-1.9-12.7-12.5,3.4,19.7,2.4,19.7,2.4l14.6,10.2"/>
      <path class="cls-3" d="M102.4,49.4l16.7-16.3s3.6-18.1,7.2-18.1,0,13,0,13c0,0,8-10.9,13.8-2.9s-5.1,14.5-10.9,14.5,1.9-12.7,12.5,3.4-19.7,2.4-19.7,2.4l-14.6,10.2"/>
    </g>
  </g>
</svg>