<?xml version="1.0" encoding="UTF-8"?>
<svg id="Layer_2" data-name="Layer 2" xmlns="http://www.w3.org/2000/svg" xmlns:xlink="http://www.w3.org/1999/xlink" viewBox="0 0 161.2 201.6">
  <defs>
    <style>
      .cls-1, .cls-2, .cls-3 {
        fill: #f9b153;
      }

      .cls-1, .cls-4, .cls-5, .cls-6, .cls-7, .cls-8, .cls-9 {
        stroke-width: 0px;
      }

      .cls-10 {
        fill: #f9b153;
      }

      .cls-10, .cls-11, .cls-2, .cls-12, .cls-13, .cls-14, .cls-3, .cls-15, .cls-16, .cls-17, .cls-18, .cls-19, .cls-20, .cls-21 {
        stroke: #000;
      }

      .cls-10, .cls-11, .cls-2, .cls-12, .cls-13, .cls-14, .cls-3, .cls-15, .cls-16, .cls-18, .cls-19, .cls-20, .cls-21 {
        stroke-miterlimit: 10;
      }

      .cls-10, .cls-11, .cls-2, .cls-12, .cls-13, .cls-14, .cls-17, .cls-18, .cls-19, .cls-20, .cls-21 {
        stroke-width: 1.6px;
      }

      .cls-11 {
        fill: #ffdebd;
      }

      .cls-11, .cls-13, .cls-17 {
        stroke-linecap: round;
      }

      .cls-4 {
        fill: url(#linear-gradient);
      }

      .cls-12, .cls-9 {
        fill: #7a5b49;
      }

      .cls-13, .cls-14 {
        fill: #0e98e5;
      }

      .cls-5 {
        fill: #fbae7c;
      }

      .cls-6 {
        fill: #000;
      }

      .cls-3, .cls-15, .cls-16 {
        stroke-width: 1.2px;
      }

      .cls-7, .cls-15, .cls-21 {
        fill: #fdda67;
      }

      .cls-8, .cls-18 {
        fill: #fbae7c;
      }

      .cls-16 {
        fill: #fff4da;
      }

      .cls-17 {
        fill: none;
        stroke-linejoin: round;
      }

      .cls-19 {
        fill: #fdda67;
      }

      .cls-20 {
        fill: #f8fcf7;
      }
    </style>
    <linearGradient id="linear-gradient" x1="58.9" y1="75.7" x2="58.9" y2="157.8" gradientUnits="userSpaceOnUse">
      <stop offset="0" stop-color="#fbae7c"/>
      <stop offset="0" stop-color="#fcc399"/>
      <stop offset=".2" stop-color="#fdd8b5"/>
      <stop offset=".2" stop-color="#fee7c9"/>
      <stop offset=".3" stop-color="#fef0d5"/>
      <stop offset=".4" stop-color="#fff4da"/>
    </linearGradient>
  </defs>
  <g id="NoPrince">
    <g>
      <g>
        <polygon class="cls-2" points="100.2 143.8 58.9 163.9 17.5 143.8 14.1 185.6 103.6 185.6 100.2 143.8"/>
        <polygon class="cls-21" points="101.4 158.9 58.9 172.7 16.3 158.9 10.2 200.8 108.3 200.8 101.4 158.9"/>
        <g>
          <polyline class="cls-17" points="58.9 172.7 58.9 186.4 79.7 172"/>
          <polyline class="cls-17" points="58.9 172.7 58.9 186.4 37 172"/>
        </g>
      </g>
      <g>
        <rect class="cls-18" x="15.3" y="43.8" width="87.2" height="119.7" rx="32.2" ry="32.2"/>
        <path class="cls-4" d="M15.3,75.7h87.2v53.4c0,15.9-12.9,28.8-28.8,28.8h-29.6c-15.9,0-28.8-12.9-28.8-28.8v-53.4h0Z"/>
        <path class="cls-12" d="M49.2,147.1s0,3.9,0,3.9c0,2.1.7,4.1,1.9,5.8l6.1,8.3c.8,1.1,2.5,1.1,3.3,0l5.9-8.3c1.2-1.6,1.8-3.6,1.8-5.6v-3.9s-19,0-19,0Z"/>
        <g>
          <path class="cls-12" d="M25.7,129.3l26.8-32.5c11.4,11.4.2,38-26.8,32.5Z"/>
          <path class="cls-12" d="M88.2,129.3l-26.8-32.5c-11.4,11.4-.2,38,26.8,32.5Z"/>
        </g>
        <g>
          <circle class="cls-20" cx="39.2" cy="80.4" r="15.6"/>
          <circle class="cls-9" cx="39.2" cy="80.4" r="5"/>
        </g>
        <g>
          <path class="cls-11" d="M58.9,82c-6.8,0-14.9,16.4-13,21.6,1.8,5.2,22,5.7,25.1,0s-3.3-11.7-3.3-11.7"/>
          <ellipse class="cls-5" cx="55.3" cy="100.1" rx="5.3" ry="7.9" transform="translate(-49.8 145.2) rotate(-84.2)"/>
        </g>
        <g>
          <circle class="cls-20" cx="77.6" cy="80.4" r="15.6"/>
          <circle class="cls-9" cx="77.6" cy="80.4" r="5"/>
        </g>
        <ellipse class="cls-8" cx="85" cy="105" rx="9.4" ry="6.5" transform="translate(-26.1 28.1) rotate(-16.3)"/>
        <ellipse class="cls-8" cx="29.8" cy="103.9" rx="6.5" ry="9.4" transform="translate(-75.6 80.2) rotate(-61.3)"/>
      </g>
      <g>
        <g>
          <path class="cls-14" d="M69.8,23.3s-1.2-20,11-22.1,28.2,6.1,29,11.1-6.9,24.6-20,17.1c-13.1-7.4-10-10.2-10-10.2l1.6,13.3-11.5-9.2Z"/>
          <path class="cls-13" d="M91.9,19.4c.6-2.5-8-11.2-12.1-.2"/>
        </g>
        <g>
          <g>
            <g>
              <path class="cls-19" d="M11.1,64.5s-5.5-.4-5.9,4.5c-.4,4.9.2,20.2,2.9,21.1s7.1,0,7.1,0v-27.2l-4.2,1.6Z"/>
              <path class="cls-21" d="M18.3,137v-58.6l40.6-15.5V13.6c-8.7-.3-48.4,35.7-49.7,42.5s2.9,21.1,2.9,21.1v36.5l-10.9,19.9c-.8,1.5.3,3.3,2,3.3h16"/>
            </g>
            <g>
              <path class="cls-6" d="M46.3,30.6l4.6-3.4c.7-.5,1.6,0,1.6.8v28.1c0,.4-.2.7-.6.9l-4.6,2.3c-.7.3-1.5-.2-1.5-.9v-27c0-.3.2-.6.4-.8Z"/>
              <path class="cls-6" d="M32.8,41.7l4.8-4c.7-.6,1.6,0,1.6.9v22c0,.5-.2.9-.6,1.1l-4.8,2.3c-.7.3-1.4-.2-1.4-1.1v-20.2c0-.4.2-.7.4-.9Z"/>
              <path class="cls-6" d="M19,54.3l5-5.4c.7-.7,1.7-.2,1.7.9v17c0,.4-.2.8-.5,1l-5,3.6c-.7.5-1.5,0-1.5-1v-15.2c0-.3.1-.7.3-.9Z"/>
            </g>
          </g>
          <g>
            <g>
              <path class="cls-10" d="M106.6,64.5s5.5-.4,5.9,4.5-.2,20.2-2.9,21.1-7.1,0-7.1,0v-27.2s4.2,1.6,4.2,1.6Z"/>
              <path class="cls-2" d="M99.4,137v-58.6s-40.6-15.5-40.6-15.5V13.6c8.7-.3,48.4,35.7,49.7,42.5s-2.9,21.1-2.9,21.1v36.5s10.9,19.9,10.9,19.9c.8,1.5-.3,3.3-2,3.3h-16"/>
            </g>
            <g>
              <path class="cls-6" d="M72.7,30.6l-4.6-3.4c-.7-.5-1.6,0-1.6.8v28.1c0,.4.2.7.6.9l4.6,2.3c.7.3,1.5-.2,1.5-.9v-27c0-.3-.2-.6-.4-.8Z"/>
              <path class="cls-6" d="M86.2,41.7l-4.8-4c-.7-.6-1.6,0-1.6.9v22c0,.5.2.9.6,1.1l4.8,2.3c.7.3,1.4-.2,1.4-1.1v-20.2c0-.4-.2-.7-.4-.9Z"/>
              <path class="cls-6" d="M99.9,54.3l-5-5.4c-.7-.7-1.7-.2-1.7.9v17c0,.4.2.8.5,1l5,3.6c.7.5,1.5,0,1.5-1v-15.2c0-.3-.1-.7-.3-.9Z"/>
            </g>
          </g>
        </g>
      </g>
      <polygon class="cls-16" points="158.2 121.6 154.9 200.8 88.2 200.8 102.4 119.5 158.2 121.6"/>
      <path class="cls-3" d="M117.5,92.9s-24.3,6.5-27.4-7.8,9.4-6.5,15.4-7.3,13.3-9.7,13.3-9.7l6-13.8,25.8-1s1.6,41.5-14.1,43c-15.7,1.6-19-3.4-19-3.4Z"/>
      <path class="cls-15" d="M122.2,37.9s-2.6-6-14.9-6.5c-12.3-.5-12.5,5.5-11.5,8.1s11.5,9.1,19.6,7.6"/>
      <path class="cls-3" d="M131.9,39.3s-8.6-6.6-14.1-3.2-10.2,24.3-2.9,28.4c7.3,4.2,13-2.1,13-2.1"/>
      <path class="cls-3" d="M140.2,41.8s-7-11.5-13.6-2.5-5.5,28.9,0,28.1,12-8.9,12-8.9"/>
      <path class="cls-15" d="M152.7,49.1s-2.6,7-5.9,11.5c-1.6,2.2-3.3,3.7-5,3.6-5.2-.3-12-.8-9.9-11,2.1-10.2,6.8-19.6,17-19.3,0,0,12.5-.8,11.7,19.3-.8,20.1-2.3,68.3-2.3,68.3l-55.8-2.1,2.2-25.2s5.9,1.4,9.5-.7,2.8-.8,4.2-.2c3.3,1.5,9.3,3.5,13.6,1.6,11.8-5.3,20-31,17.1-38.7"/>
      <g>
        <polygon class="cls-7" points="103.8 119.8 104.7 109.7 157.2 112.2 156.9 121.8 103.8 119.8"/>
        <path class="cls-1" d="M105.4,110.5l50.9,2.4-.3,8-51.4-1.9.7-8.5M103.9,108.8l-1,11.8,54.7,2,.4-11.2-54.1-2.6h0Z"/>
      </g>
    </g>
  </g>
</svg>