<?xml version="1.0" encoding="UTF-8"?>
<svg id="Layer_2" data-name="Layer 2" xmlns="http://www.w3.org/2000/svg" xmlns:xlink="http://www.w3.org/1999/xlink" viewBox="0 0 177.9 201.6">
  <defs>
    <style>
      .cls-1, .cls-2 {
        fill: #f9b153;
      }

      .cls-1, .cls-3, .cls-4, .cls-5, .cls-6, .cls-7 {
        stroke-width: 0px;
      }

      .cls-8 {
        fill: #f9b153;
      }

      .cls-8, .cls-9, .cls-2, .cls-10, .cls-11, .cls-12, .cls-13, .cls-14, .cls-15, .cls-16, .cls-17, .cls-18 {
        stroke: #000;
      }

      .cls-8, .cls-9, .cls-2, .cls-10, .cls-11, .cls-12, .cls-13, .cls-14, .cls-16, .cls-17, .cls-18 {
        stroke-width: 1.6px;
      }

      .cls-8, .cls-9, .cls-2, .cls-10, .cls-11, .cls-12, .cls-13, .cls-15, .cls-16, .cls-17, .cls-18 {
        stroke-miterlimit: 10;
      }

      .cls-9 {
        fill: #ffdebd;
      }

      .cls-9, .cls-11, .cls-14 {
        stroke-linecap: round;
      }

      .cls-3 {
        fill: url(#linear-gradient);
      }

      .cls-10, .cls-7 {
        fill: #7a5b49;
      }

      .cls-11, .cls-12 {
        fill: #0e98e5;
      }

      .cls-4 {
        fill: #fbae7c;
      }

      .cls-5 {
        fill: #000;
      }

      .cls-13, .cls-15 {
        fill: #fff;
      }

      .cls-6, .cls-16 {
        fill: #fbae7c;
      }

      .cls-14 {
        fill: none;
        stroke-linejoin: round;
      }

      .cls-15 {
        stroke-width: 1.2px;
      }

      .cls-17 {
        fill: #fdda67;
      }

      .cls-18 {
        fill: #fdda67;
      }
    </style>
    <linearGradient id="linear-gradient" x1="58.9" y1="76.8" x2="58.9" y2="158.9" gradientUnits="userSpaceOnUse">
      <stop offset="0" stop-color="#fbae7c"/>
      <stop offset="0" stop-color="#fcc399"/>
      <stop offset=".2" stop-color="#fdd8b5"/>
      <stop offset=".2" stop-color="#fee7c9"/>
      <stop offset=".3" stop-color="#fef0d5"/>
      <stop offset=".4" stop-color="#fff4da"/>
    </linearGradient>
  </defs>
  <g id="Layer_4" data-name="Layer 4">
    <g>
      <g>
        <polygon class="cls-2" points="100.2 143.8 58.9 163.9 17.5 143.8 14.1 185.6 103.6 185.6 100.2 143.8"/>
        <polygon class="cls-18" points="101.4 158.9 58.9 172.7 16.3 158.9 10.2 200.8 108.3 200.8 101.4 158.9"/>
        <g>
          <polyline class="cls-14" points="58.9 172.7 58.9 186.4 79.7 172"/>
          <polyline class="cls-14" points="58.9 172.7 58.9 186.4 37 172"/>
        </g>
      </g>
      <g>
        <rect class="cls-16" x="15.3" y="45" width="87.2" height="119.7" rx="32.2" ry="32.2"/>
        <path class="cls-3" d="M15.3,76.8h87.2v53.4c0,15.9-12.9,28.8-28.8,28.8h-29.6c-15.9,0-28.8-12.9-28.8-28.8v-53.4h0Z"/>
        <path class="cls-10" d="M49.2,148.3s0,3.9,0,3.9c0,2.1.7,4.1,1.9,5.8l6.1,8.3c.8,1.1,2.5,1.1,3.3,0l5.9-8.3c1.2-1.6,1.8-3.6,1.8-5.6v-3.9s-19,0-19,0Z"/>
        <g>
          <path class="cls-10" d="M25.7,130.5l26.8-32.5c11.4,11.4.2,38-26.8,32.5Z"/>
          <path class="cls-10" d="M88.2,130.5l-26.8-32.5c-11.4,11.4-.2,38,26.8,32.5Z"/>
        </g>
        <g>
          <circle class="cls-13" cx="39.2" cy="81.5" r="15.6"/>
          <circle class="cls-7" cx="39.2" cy="83.1" r="8"/>
          <path class="cls-10" d="M54.8,81.5c0-8.6-7-15.6-15.6-15.6s-15.6,7-15.6,15.6h31.2Z"/>
        </g>
        <g>
          <path class="cls-9" d="M58.9,83.1c-6.8,0-14.9,16.4-13,21.6s22,5.7,25.1,0-3.3-11.7-3.3-11.7"/>
          <ellipse class="cls-4" cx="55.3" cy="101.3" rx="5.3" ry="7.9" transform="translate(-51 146.2) rotate(-84.2)"/>
        </g>
        <g>
          <circle class="cls-13" cx="77.6" cy="81.5" r="15.6"/>
          <circle class="cls-7" cx="77.6" cy="83.1" r="8"/>
          <path class="cls-10" d="M93.2,81.5c0-8.6-7-15.6-15.6-15.6s-15.6,7-15.6,15.6h31.2Z"/>
        </g>
      </g>
      <g>
        <g>
          <path class="cls-12" d="M69.8,23.3s-1.2-20,11-22.1,28.2,6.1,29,11.1-6.9,24.6-20,17.1c-13.1-7.4-10-10.2-10-10.2l1.6,13.3-11.5-9.2Z"/>
          <path class="cls-11" d="M91.9,19.4c.6-2.5-8-11.2-12.1-.2"/>
        </g>
        <g>
          <g>
            <g>
              <path class="cls-17" d="M11.1,64.5s-5.5-.4-5.9,4.5.2,20.2,2.9,21.1,7.1,0,7.1,0v-27.2l-4.2,1.6Z"/>
              <path class="cls-18" d="M18.3,137v-58.6l40.6-15.5V13.6c-8.7-.3-48.4,35.7-49.7,42.5s2.9,21.1,2.9,21.1v36.5l-10.9,19.9c-.8,1.5.3,3.3,2,3.3h16"/>
            </g>
            <g>
              <path class="cls-5" d="M46.3,30.6l4.6-3.4c.7-.5,1.6,0,1.6.8v28.1c0,.4-.2.7-.6.9l-4.6,2.3c-.7.3-1.5-.2-1.5-.9v-27c0-.3.2-.6.4-.8Z"/>
              <path class="cls-5" d="M32.8,41.7l4.8-4c.7-.6,1.6,0,1.6.9v22c0,.5-.2.9-.6,1.1l-4.8,2.3c-.7.3-1.4-.2-1.4-1.1v-20.2c0-.4.2-.7.4-.9Z"/>
              <path class="cls-5" d="M19,54.3l5-5.4c.7-.7,1.7-.2,1.7.9v17c0,.4-.2.8-.5,1l-5,3.6c-.7.5-1.5,0-1.5-1v-15.2c0-.3.1-.7.3-.9Z"/>
            </g>
          </g>
          <g>
            <g>
              <path class="cls-8" d="M106.6,64.5s5.5-.4,5.9,4.5c.4,4.9-.2,20.2-2.9,21.1s-7.1,0-7.1,0v-27.2s4.2,1.6,4.2,1.6Z"/>
              <path class="cls-2" d="M99.4,137v-58.6s-40.6-15.5-40.6-15.5V13.6c8.7-.3,48.4,35.7,49.7,42.5,1.3,6.8-2.9,21.1-2.9,21.1v36.5s10.9,19.9,10.9,19.9c.8,1.5-.3,3.3-2,3.3h-16"/>
            </g>
            <g>
              <path class="cls-5" d="M72.7,30.6l-4.6-3.4c-.7-.5-1.6,0-1.6.8v28.1c0,.4.2.7.6.9l4.6,2.3c.7.3,1.5-.2,1.5-.9v-27c0-.3-.2-.6-.4-.8Z"/>
              <path class="cls-5" d="M86.2,41.7l-4.8-4c-.7-.6-1.6,0-1.6.9v22c0,.5.2.9.6,1.1l4.8,2.3c.7.3,1.4-.2,1.4-1.1v-20.2c0-.4-.2-.7-.4-.9Z"/>
              <path class="cls-5" d="M99.9,54.3l-5-5.4c-.7-.7-1.7-.2-1.7.9v17c0,.4.2.8.5,1l5,3.6c.7.5,1.5,0,1.5-1v-15.2c0-.3-.1-.7-.3-.9Z"/>
            </g>
          </g>
        </g>
      </g>
      <ellipse class="cls-6" cx="29.8" cy="104.8" rx="6.5" ry="9.4" transform="translate(-76.5 80.7) rotate(-61.3)"/>
      <ellipse class="cls-6" cx="86.6" cy="104.4" rx="9.4" ry="6.5" transform="translate(-39.5 54.4) rotate(-28.7)"/>
      <g>
        <g>
          <path class="cls-2" d="M130.2,200.7h-22.6s-2.3-4.4,0-9.4,7.2.3,7.2.3c0,0-7.8-4.8-8.1-7.1s1.6-25.8,11.6-28.8,40.3,18.3,36.9,24.6-25.1,20.4-25.1,20.4Z"/>
          <path class="cls-18" d="M127.2,165s-11.7,4.2-15.4,0,2.1-17,14.1-17.7c12-.8,12.5,10.6,12.5,10.6"/>
          <path class="cls-1" d="M134.9,160.1s-2.1-8.8-7.6-8.6-15.5,4.8-15.9,8.4.2,10.3,20.3,3.2"/>
          <path class="cls-2" d="M150,161.6s-4.2-14.3-14.9-11.2-13.8,19.3-8.6,24.3c5.2,5,15.1-1.5,15.1-1.5"/>
          <path class="cls-2" d="M157.6,167.8s-6.8-15.8-15.4-9.1-13.6,18.2-6.5,22.2,17.2-1.9,17.2-1.9"/>
          <path class="cls-18" d="M154,200.7s5.7-7.6,6.2-11.9,10.7-22.7,15.4-27.5c4.7-4.7-1.8-18.3-17.2-6.3-15.4,12-10.2,25.6-22.7,33-7.7,4.5-6.3,7.9-6.1,12.7h24.4Z"/>
        </g>
        <path class="cls-15" d="M105.5,162.6c-6.1,0-11.1,5-11.1,11.1s5,11.1,11.1,11.1,11.1-5,11.1-11.1-5-11.1-11.1-11.1ZM105.5,180.7c-3.9,0-7-3.1-7-7s3.1-7,7-7,7,3.1,7,7-3.1,7-7,7Z"/>
        <path class="cls-13" d="M93.4,189.3c.3-6.9,8.9-7.6,11.2-13.4s5.5-9.3,5.5-15.9l-51.6-1.3s.3,17.9,9.4,20.3,10.7,10.7,10.7,13.6,14.9-3.3,14.9-3.3Z"/>
        <rect class="cls-13" x="58.5" y="187.5" width="50.6" height="7.6" rx="3.2" ry="3.2"/>
        <path class="cls-2" d="M30.3,200.7s-3.7-21.4,19.3-22.7c23-1.3,29,11.4,29,11.4h-21.7c0,.1-4.8,0-3.7-3.9s-4.9,4.5,3.7,4c8.6-.5,35.2-1,39.1,3.4s1.8,7.7,1.8,7.7H30.3Z"/>
      </g>
    </g>
  </g>
</svg>