<?xml version="1.0" encoding="UTF-8"?>
<svg id="Layer_2" data-name="Layer 2" xmlns="http://www.w3.org/2000/svg" xmlns:xlink="http://www.w3.org/1999/xlink" viewBox="0 0 148.7 201.6">
  <defs>
    <style>
      .cls-1, .cls-2 {
        fill: #f9b153;
      }

      .cls-1, .cls-3, .cls-4, .cls-5, .cls-6 {
        stroke-width: 0px;
      }

      .cls-7 {
        fill: #f9b153;
      }

      .cls-7, .cls-8, .cls-2, .cls-9, .cls-10, .cls-11, .cls-12, .cls-13, .cls-14, .cls-15, .cls-16, .cls-17, .cls-18, .cls-19, .cls-20, .cls-21 {
        stroke-width: 1.6px;
      }

      .cls-7, .cls-8, .cls-2, .cls-9, .cls-10, .cls-11, .cls-12, .cls-13, .cls-15, .cls-16, .cls-17, .cls-18, .cls-19, .cls-20, .cls-21 {
        stroke: #000;
      }

      .cls-7, .cls-8, .cls-2, .cls-9, .cls-10, .cls-11, .cls-12, .cls-14, .cls-15, .cls-16, .cls-17, .cls-18, .cls-19, .cls-21 {
        stroke-miterlimit: 10;
      }

      .cls-8 {
        fill: #ffdebd;
      }

      .cls-8, .cls-10, .cls-13, .cls-20 {
        stroke-linecap: round;
      }

      .cls-3 {
        fill: url(#linear-gradient);
      }

      .cls-9, .cls-6 {
        fill: #7a5b49;
      }

      .cls-10, .cls-11 {
        fill: #0e98e5;
      }

      .cls-4 {
        fill: #fbae7c;
      }

      .cls-5 {
        fill: #000;
      }

      .cls-12 {
        fill: #fff;
      }

      .cls-13, .cls-19 {
        fill: none;
      }

      .cls-13, .cls-20 {
        stroke-linejoin: round;
      }

      .cls-14 {
        stroke: #f9b153;
      }

      .cls-14, .cls-20, .cls-21 {
        fill: #fdda67;
      }

      .cls-15 {
        fill: #fbae7c;
      }

      .cls-16 {
        fill: #fdda67;
      }

      .cls-17 {
        fill: #f8fcf7;
      }

      .cls-18 {
        fill: #fff4da;
      }
    </style>
    <linearGradient id="linear-gradient" x1="58.9" y1="76.8" x2="58.9" y2="158.9" gradientUnits="userSpaceOnUse">
      <stop offset="0" stop-color="#fbae7c"/>
      <stop offset="0" stop-color="#fcc399"/>
      <stop offset=".2" stop-color="#fdd8b5"/>
      <stop offset=".2" stop-color="#fee7c9"/>
      <stop offset=".3" stop-color="#fef0d5"/>
      <stop offset=".4" stop-color="#fff4da"/>
    </linearGradient>
  </defs>
  <g id="YesPrince">
    <g>
      <g>
        <polygon class="cls-2" points="100.2 143.8 58.9 163.9 17.5 143.8 14.1 185.6 103.6 185.6 100.2 143.8"/>
        <polygon class="cls-21" points="101.4 158.9 58.9 172.7 16.3 158.9 10.2 200.8 108.3 200.8 101.4 158.9"/>
        <g>
          <polyline class="cls-13" points="58.9 172.7 58.9 186.4 79.7 172"/>
          <polyline class="cls-13" points="58.9 172.7 58.9 186.4 37 172"/>
        </g>
      </g>
      <g>
        <rect class="cls-15" x="15.3" y="45" width="87.2" height="119.7" rx="32.2" ry="32.2"/>
        <path class="cls-3" d="M15.3,76.8h87.2v53.4c0,15.9-12.9,28.8-28.8,28.8h-29.6c-15.9,0-28.8-12.9-28.8-28.8v-53.4h0Z"/>
        <path class="cls-9" d="M49.2,148.3s0,3.9,0,3.9c0,2.1.7,4.1,1.9,5.8l6.1,8.3c.8,1.1,2.5,1.1,3.3,0l5.9-8.3c1.2-1.6,1.8-3.6,1.8-5.6v-3.9s-19,0-19,0Z"/>
        <g>
          <path class="cls-12" d="M26.6,127.1s9,19.6,31.1,17.8c22.1,1.8,31.1-17.8,31.1-17.8l.8-22.3h-31.9s-31.9.5-31.9.5l.8,21.8Z"/>
          <line class="cls-19" x1="37.9" y1="139.9" x2="36.7" y2="105.2"/>
          <line class="cls-19" x1="49.2" y1="144.5" x2="49.2" y2="104.8"/>
          <path class="cls-19" d="M26.3,119.5s17.3,9.2,31.4,8.7"/>
          <line class="cls-19" x1="79.5" y1="138.5" x2="80.6" y2="105.4"/>
          <line class="cls-19" x1="68.1" y1="144.8" x2="68.1" y2="105.1"/>
          <path class="cls-19" d="M89.6,119.8s-17.8,9-31.9,8.5"/>
        </g>
        <g>
          <path class="cls-9" d="M15.6,105.5l42.1-.7c-1.3,16.1-28.8,24.8-42.1.7Z"/>
          <path class="cls-9" d="M100.5,105h-42.1c1.5,16.1,29.2,24.3,42.1,0Z"/>
        </g>
        <g>
          <circle class="cls-17" cx="39.2" cy="81.5" r="15.6"/>
          <circle class="cls-6" cx="39.2" cy="81.5" r="5"/>
        </g>
        <g>
          <path class="cls-8" d="M58.9,83.1c-6.8,0-14.9,16.4-13,21.6,1.8,5.2,22,5.7,25.1,0,3.1-5.7-3.3-11.7-3.3-11.7"/>
          <ellipse class="cls-4" cx="55.3" cy="101.3" rx="5.3" ry="7.9" transform="translate(-51 146.2) rotate(-84.2)"/>
        </g>
        <g>
          <circle class="cls-17" cx="77.6" cy="81.5" r="15.6"/>
          <circle class="cls-6" cx="77.6" cy="81.5" r="5"/>
        </g>
      </g>
      <g>
        <g>
          <path class="cls-11" d="M69.8,23.3s-1.2-20,11-22.1,28.2,6.1,29,11.1-6.9,24.6-20,17.1-10-10.2-10-10.2l1.6,13.3-11.5-9.2Z"/>
          <path class="cls-10" d="M91.9,19.4c.6-2.5-8-11.2-12.1-.2"/>
        </g>
        <g>
          <g>
            <g>
              <path class="cls-16" d="M11.1,64.5s-5.5-.4-5.9,4.5.2,20.2,2.9,21.1,7.1,0,7.1,0v-27.2l-4.2,1.6Z"/>
              <path class="cls-21" d="M18.3,137v-58.6l40.6-15.5V13.6c-8.7-.3-48.4,35.7-49.7,42.5s2.9,21.1,2.9,21.1v36.5l-10.9,19.9c-.8,1.5.3,3.3,2,3.3h16"/>
            </g>
            <g>
              <path class="cls-5" d="M46.3,30.6l4.6-3.4c.7-.5,1.6,0,1.6.8v28.1c0,.4-.2.7-.6.9l-4.6,2.3c-.7.3-1.5-.2-1.5-.9v-27c0-.3.2-.6.4-.8Z"/>
              <path class="cls-5" d="M32.8,41.7l4.8-4c.7-.6,1.6,0,1.6.9v22c0,.5-.2.9-.6,1.1l-4.8,2.3c-.7.3-1.4-.2-1.4-1.1v-20.2c0-.4.2-.7.4-.9Z"/>
              <path class="cls-5" d="M19,54.3l5-5.4c.7-.7,1.7-.2,1.7.9v17c0,.4-.2.8-.5,1l-5,3.6c-.7.5-1.5,0-1.5-1v-15.2c0-.3.1-.7.3-.9Z"/>
            </g>
          </g>
          <g>
            <g>
              <path class="cls-7" d="M106.6,64.5s5.5-.4,5.9,4.5-.2,20.2-2.9,21.1-7.1,0-7.1,0v-27.2s4.2,1.6,4.2,1.6Z"/>
              <path class="cls-2" d="M99.4,137v-58.6s-40.6-15.5-40.6-15.5V13.6c8.7-.3,48.4,35.7,49.7,42.5s-2.9,21.1-2.9,21.1v36.5s10.9,19.9,10.9,19.9c.8,1.5-.3,3.3-2,3.3h-16"/>
            </g>
            <g>
              <path class="cls-5" d="M72.7,30.6l-4.6-3.4c-.7-.5-1.6,0-1.6.8v28.1c0,.4.2.7.6.9l4.6,2.3c.7.3,1.5-.2,1.5-.9v-27c0-.3-.2-.6-.4-.8Z"/>
              <path class="cls-5" d="M86.2,41.7l-4.8-4c-.7-.6-1.6,0-1.6.9v22c0,.5.2.9.6,1.1l4.8,2.3c.7.3,1.4-.2,1.4-1.1v-20.2c0-.4-.2-.7-.4-.9Z"/>
              <path class="cls-5" d="M99.9,54.3l-5-5.4c-.7-.7-1.7-.2-1.7.9v17c0,.4.2.8.5,1l5,3.6c.7.5,1.5,0,1.5-1v-15.2c0-.3-.1-.7-.3-.9Z"/>
            </g>
          </g>
        </g>
      </g>
      <g>
        <g>
          <path class="cls-20" d="M123.2,100.3c-3.6-2.6-7.8-1.5-7.8-1.5,0,0-7.8-10.2-18.2-3.9s-7.3,10.1-5.3,11.5,7-1.4,7.9-1.7c0,0,4.5-1.7,4.5,3.8s1.6,21.9-6.8,9.6c-7.7-5.3-11.6,4.3-6.4,11.9,5.2,7.6,7.2,9.4,12.7,9.8l-5.7,59.7,49.7-7-2-114.3c0-12.1-14.5-5.1-16,3.9-1.6,9,0,17.6,0,17.6"/>
          <path class="cls-1" d="M135.4,121.1l1.3-5.8s3.6,5.2,2.9,14.3c-1.8,24.1-36.9,30-36.9,30l1.9-20s-3.8-1.3-5.5-2.6,0-15.7,0-15.7c0,0,6.6,6.2,6.1-8.8l-.5-6.5s4.2-6.2,10.7-6"/>
          <path class="cls-20" d="M123.2,100.3s-10-7.3-10.9,7.1c-1.4,21.5,14.2,13.7,14.2,13.7,0,0-3.1-4.4-4.6-12.6-1.1-5.9,1.4-8.2,1.4-8.2Z"/>
          <path class="cls-1" d="M115.3,119.2s8.6,2.1,7.5-6.1c-1.1-8.2,2.7,7.7,2.7,7.7,0,0-6.8,2.9-10.2-1.6Z"/>
          <path class="cls-20" d="M129.7,99.6s-10.6-3.1-7.8,9,5.4,17.2,12.7,12.5"/>
        </g>
        <polygon class="cls-18" points="97.9 200.8 101.7 160.7 147 152.6 147.9 200.8 97.9 200.8"/>
        <polygon class="cls-14" points="102.3 170.3 145.7 162 145.4 151.7 103.3 159.6 102.3 170.3"/>
      </g>
    </g>
  </g>
</svg>